<?xml version="1.0" standalone="no"?>
<!DOCTYPE svg PUBLIC "-//W3C//DTD SVG 20010904//EN"
 "http://www.w3.org/TR/2001/REC-SVG-20010904/DTD/svg10.dtd">
<svg version="1.0" xmlns="http://www.w3.org/2000/svg"
 width="300.000000pt" height="300.000000pt" viewBox="0 0 300.000000 300.000000"
 preserveAspectRatio="xMidYMid meet">
<metadata>
Created by potrace 1.11, written by Peter Selinger 2001-2013
</metadata>
<g transform="translate(0.000000,300.000000) scale(0.100000,-0.100000)"
fill="#000000" stroke="none">
<path d="M210 2714 c-64 -27 -60 40 -60 -1027 0 -1039 -2 -999 48 -1024 9 -4
238 -10 507 -13 l490 -5 48 -24 c90 -44 141 -119 157 -233 10 -67 21 -85 67
-105 64 -26 133 25 133 99 0 66 36 143 91 192 85 77 80 76 611 76 337 0 475 3
491 12 55 29 52 -40 55 1019 l2 978 -22 25 c-13 15 -36 30 -53 34 -51 14 -831
7 -900 -7 -105 -22 -218 -84 -296 -161 -38 -38 -69 -74 -69 -80 0 -6 -35 24
-78 67 -95 96 -200 154 -324 179 -62 13 -867 10 -898 -2z m890 -203 c145 -41
248 -145 284 -286 14 -51 16 -159 16 -757 0 -384 -3 -698 -6 -698 -4 0 -21 9
-38 19 -32 20 -111 48 -156 55 -14 3 -211 5 -437 5 l-413 1 0 833 c0 459 2
836 4 838 3 2 161 4 353 3 249 0 361 -4 393 -13z m1548 -824 l2 -837 -412 0
c-446 0 -488 -4 -583 -55 -26 -14 -50 -25 -51 -25 -2 0 -4 316 -4 703 0 613 2
710 16 758 42 144 153 250 296 283 29 7 177 11 390 11 l343 0 3 -838z"/>
</g>
</svg>
